<svg width="36" height="36" viewBox="0 0 36 36" fill="none" xmlns="http://www.w3.org/2000/svg">
<path d="M7.2095 22.7179C7.2095 24.1608 6.20412 25.3422 4.97585 25.3422C3.74758 25.3422 2.74103 24.162 2.74103 22.7179V14.1293C2.74103 12.6864 3.7464 11.505 4.97585 11.505C6.2053 11.505 7.2095 12.6864 7.2095 14.1293V22.7179ZM33.259 22.7179C33.259 24.1608 32.2536 25.3422 31.0241 25.3422C29.7947 25.3422 28.7893 24.162 28.7893 22.7179V14.1293C28.7893 12.6864 29.7947 11.505 31.0241 11.505C32.2536 11.505 33.259 12.6864 33.259 14.1293V22.7179ZM22.8849 3.20394L24.3185 0.631259C24.4358 0.421268 24.4006 0.176083 24.2422 0.0880976C24.0839 0.00011253 23.8563 0.0986558 23.7401 0.308647L22.2737 2.94116C20.8961 2.40539 19.43 2.1332 17.9519 2.13874C16.3916 2.13874 14.9158 2.43202 13.5996 2.95407L12.1261 0.30982C12.0088 0.099829 11.7824 0.000112589 11.624 0.0892708C11.4656 0.178429 11.4304 0.422441 11.5478 0.632432L12.9884 3.21802C9.991 4.62578 7.97204 7.26885 7.97204 10.2979C7.97204 10.6052 7.99433 10.9091 8.03421 11.2082H27.8708C27.9118 10.9091 27.9329 10.6064 27.9329 10.2979C27.9329 7.25947 25.9011 4.60936 22.8873 3.20512L22.8849 3.20394ZM13.4213 7.6947C13.3066 7.6947 13.1931 7.67212 13.0872 7.62826C12.9813 7.5844 12.8851 7.52011 12.8041 7.43906C12.723 7.35801 12.6587 7.26179 12.6149 7.1559C12.571 7.05001 12.5484 6.93651 12.5484 6.82189C12.5484 6.70727 12.571 6.59377 12.6149 6.48788C12.6587 6.38198 12.723 6.28577 12.8041 6.20472C12.8851 6.12367 12.9813 6.05938 13.0872 6.01552C13.1931 5.97165 13.3066 5.94908 13.4213 5.94908C13.6527 5.94908 13.8747 6.04103 14.0384 6.20472C14.2021 6.3684 14.2941 6.5904 14.2941 6.82189C14.2941 7.05337 14.2021 7.27538 14.0384 7.43906C13.8747 7.60274 13.6527 7.6947 13.4213 7.6947ZM22.5295 7.6947C22.4149 7.6947 22.3014 7.67212 22.1955 7.62826C22.0896 7.5844 21.9933 7.52011 21.9123 7.43906C21.8313 7.35801 21.767 7.26179 21.7231 7.1559C21.6792 7.05001 21.6567 6.93651 21.6567 6.82189C21.6567 6.70727 21.6792 6.59377 21.7231 6.48788C21.767 6.38198 21.8313 6.28577 21.9123 6.20472C21.9933 6.12367 22.0896 6.05938 22.1955 6.01552C22.3014 5.97165 22.4149 5.94908 22.5295 5.94908C22.761 5.94908 22.983 6.04103 23.1466 6.20472C23.3103 6.3684 23.4023 6.5904 23.4023 6.82189C23.4023 7.05337 23.3103 7.27538 23.1466 7.43906C22.983 7.60274 22.761 7.6947 22.5295 7.6947ZM7.96969 12.0752V26.7053H7.9779C8.07997 27.9407 9.21673 28.9226 10.594 28.9226H25.3063C26.6824 28.9226 27.8191 27.9407 27.9224 26.7053H27.9306V12.0752H7.97086H7.96969ZM16.5218 28.8498V33.3758C16.5218 34.8187 15.5165 36.0001 14.287 36.0001C13.0576 36.0001 12.0534 34.8187 12.0534 33.3758V28.8534L16.5218 28.8498ZM23.9689 28.8475V33.3758C23.9689 34.8187 22.9635 36.0001 21.7341 36.0001C20.5046 36.0001 19.4993 34.8187 19.4993 33.3758V28.8475H23.9689Z" fill="#EF4444"/>
</svg>
