<svg width="36" height="45" viewBox="0 0 36 45" fill="none" xmlns="http://www.w3.org/2000/svg">
<g clip-path="url(#clip0_122_91)">
<path d="M19.8631 3.84357C22.7646 0.019376 26.7983 0.000732422 26.7983 0.000732422C26.7983 0.000732422 27.3983 3.59612 24.5158 7.05963C21.4381 10.7579 17.9398 10.1527 17.9398 10.1527C17.9398 10.1527 17.283 7.24417 19.8631 3.84357ZM18.3089 12.6713C19.8015 12.6713 22.5718 10.6195 26.1777 10.6195C32.3847 10.6195 34.8265 15.0361 34.8265 15.0361C34.8265 15.0361 30.0507 17.4779 30.0507 23.4026C30.0507 30.0862 36 32.3896 36 32.3896C36 32.3896 31.8413 44.095 26.2239 44.095C23.6439 44.095 21.6381 42.3563 18.9197 42.3563C16.1494 42.3563 13.4003 44.1598 11.6098 44.1598C6.4803 44.16 0 33.0562 0 24.1306C0 15.3491 5.48515 10.7425 10.63 10.7425C13.9746 10.7425 16.5701 12.6713 18.3089 12.6713Z" fill="#EF4444"/>
</g>
<defs>
<clipPath id="clip0_122_91">
<rect width="36" height="44.1609" fill="white"/>
</clipPath>
</defs>
</svg>
