<svg width="36" height="36" viewBox="0 0 36 36" fill="none" xmlns="http://www.w3.org/2000/svg">
<path d="M18 0.5625C8.36719 0.5625 0.5625 8.36719 0.5625 18C0.5625 27.6328 8.36719 35.4375 18 35.4375C27.6328 35.4375 35.4375 27.6328 35.4375 18C35.4375 8.36719 27.6328 0.5625 18 0.5625ZM18 32.0625C10.2305 32.0625 3.9375 25.7695 3.9375 18C3.9375 10.2305 10.2305 3.9375 18 3.9375C25.7695 3.9375 32.0625 10.2305 32.0625 18C32.0625 25.7695 25.7695 32.0625 18 32.0625ZM22.3453 24.7219L16.3758 20.3836C16.1578 20.2219 16.0312 19.9688 16.0312 19.7016V8.15625C16.0312 7.69219 16.4109 7.3125 16.875 7.3125H19.125C19.5891 7.3125 19.9688 7.69219 19.9688 8.15625V18.1195L24.6656 21.5367C25.0453 21.8109 25.1227 22.3383 24.8484 22.718L23.5266 24.5391C23.2523 24.9117 22.725 24.9961 22.3453 24.7219Z" fill="#EF4444"/>
</svg>
