<svg width="36" height="36" viewBox="0 0 36 36" fill="none" xmlns="http://www.w3.org/2000/svg">
<g clip-path="url(#clip0_123_28)">
<path d="M1.30773 1.72971L8.62023 0.0422154C9.41476 -0.140597 10.2304 0.274247 10.5538 1.01956L13.9288 8.89456C14.2241 9.58362 14.0273 10.3922 13.4437 10.8633L9.18273 14.3508C11.714 19.7438 16.1366 24.2297 21.6421 26.8102L25.1296 22.5492C25.6077 21.9656 26.4093 21.7688 27.0984 22.0641L34.9734 25.4391C35.7257 25.7695 36.1406 26.5852 35.9578 27.3797L34.2703 34.6922C34.0945 35.4516 33.4195 36 32.6249 36C14.6179 36 -8.7738e-05 21.4102 -8.7738e-05 3.37503C-8.7738e-05 2.58753 0.541321 1.9055 1.30773 1.72971Z" fill="#EF4444"/>
</g>
<defs>
<clipPath id="clip0_123_28">
<rect width="36" height="36" fill="white" transform="matrix(-1 0 0 1 36 0)"/>
</clipPath>
</defs>
</svg>
