<svg width="17" height="17" viewBox="0 0 17 17" fill="none" xmlns="http://www.w3.org/2000/svg">
<path fill-rule="evenodd" clip-rule="evenodd" d="M2.7495 0.379639H14.7744C15.8309 0.379639 16.6939 1.24422 16.6939 2.29918V14.2463C16.6939 15.3029 15.8293 16.1659 14.7744 16.1659H2.7495C1.69296 16.1659 0.829956 15.3013 0.829956 14.2463V2.29918C0.829956 1.24264 1.69454 0.379639 2.7495 0.379639ZM2.54326 6.8791H4.12807C3.96309 7.35978 3.87266 7.87377 3.87266 8.40998C3.87266 11.0545 6.06189 13.1977 8.76194 13.1977C11.462 13.1977 13.6512 11.0545 13.6512 8.40998C13.6512 7.87536 13.5608 7.35978 13.3958 6.8791H14.9806V13.5261C14.9806 13.9973 14.5951 14.3812 14.1255 14.3812H3.33329C2.89862 14.3812 2.54326 14.0258 2.54326 13.5911V6.8791ZM12.3694 1.94383H14.2112C14.6268 1.94383 14.9679 2.2849 14.9679 2.70054V4.41226C14.9679 4.82789 14.6268 5.16897 14.2112 5.16897H12.3694C11.9538 5.16897 11.6127 4.82789 11.6127 4.41226V2.70054C11.6127 2.2849 11.9538 1.94383 12.3694 1.94383ZM8.7667 5.0373C10.5197 5.0373 11.9411 6.43015 11.9411 8.14663C11.9411 9.86311 10.5197 11.256 8.7667 11.256C7.01373 11.256 5.59232 9.86311 5.59232 8.14663C5.59232 6.43015 7.01373 5.0373 8.7667 5.0373Z" fill="#A8A29E"/>
</svg>
