<svg width="19" height="17" viewBox="0 0 19 17" fill="none" xmlns="http://www.w3.org/2000/svg">
<path d="M4.82082 16.9358V5.50856H1.02259V16.9358H4.82122H4.82082ZM2.9225 3.94864C4.24674 3.94864 5.07118 3.07116 5.07118 1.97457C5.04639 0.852985 4.24674 0 2.94768 0C1.64773 0 0.798706 0.852985 0.798706 1.97447C0.798706 3.07106 1.62284 3.94854 2.89761 3.94854H2.9222L2.9225 3.94864ZM6.9232 16.9358H10.7211V10.555C10.7211 10.2139 10.7459 9.87195 10.8463 9.62833C11.1207 8.94569 11.7457 8.23905 12.7952 8.23905C14.1692 8.23905 14.7192 9.28686 14.7192 10.8232V16.9358H18.517V10.3838C18.517 6.87396 16.6435 5.24066 14.1446 5.24066C12.0958 5.24066 11.1961 6.38574 10.6962 7.16565H10.7214V5.50896H6.9234C6.97297 6.58097 6.9231 16.9362 6.9231 16.9362L6.9232 16.9358Z" fill="#A8A29E"/>
</svg>
