<svg width="19" height="16" viewBox="0 0 19 16" fill="none" xmlns="http://www.w3.org/2000/svg">
<path d="M6.06686 15.6834C13.1704 15.6834 17.0551 9.7962 17.0551 4.69102C17.0551 4.52382 17.0517 4.35739 17.0442 4.19165C17.8001 3.64451 18.4524 2.96706 18.9706 2.19107C18.2786 2.49883 17.534 2.70596 16.7528 2.79936C17.5502 2.32107 18.1623 1.56442 18.4511 0.662491C17.693 1.11238 16.8636 1.42953 15.9988 1.60027C15.294 0.849311 14.2907 0.379639 13.1797 0.379639C11.047 0.379639 9.31753 2.10981 9.31753 4.2425C9.31753 4.54571 9.35147 4.84053 9.41773 5.12342C6.20796 4.96185 3.36176 3.42451 1.45694 1.0869C1.11387 1.67649 0.933415 2.34658 0.934014 3.02872C0.934014 4.3691 1.6158 5.55235 2.65263 6.24462C2.03933 6.22588 1.43949 6.06016 0.90356 5.7614C0.902986 5.77762 0.902986 5.79342 0.902986 5.81075C0.902986 7.68175 2.23418 9.24392 4.00131 9.5979C3.66942 9.68832 3.32694 9.73404 2.98296 9.73384C2.73454 9.73384 2.49243 9.70939 2.25714 9.6642C2.74881 11.1992 4.17451 12.3163 5.86485 12.3475C4.54302 13.3839 2.87794 14.0013 1.06823 14.0013C0.760374 14.0015 0.452771 13.9836 0.147018 13.9477C1.85622 15.0437 3.88573 15.6831 6.06705 15.6831" fill="#A8A29E"/>
</svg>
