<svg width="64" height="64" viewBox="0 0 64 64" fill="none" xmlns="http://www.w3.org/2000/svg">
<path d="M11.8 36L14.2 40.8C14.6 41.6 15.2 42 16 42H50C50.8 42 51.4 41.6 51.8 40.8L54.2 36H11.8Z" fill="#C13535"/>
<path d="M8 34H10.8H55.2H58C59.2 34 60 33.2 60 32C60 30.8 59.2 30 58 30H56C55.6 19.4 47.8 10.6 37.8 8.4C37.8 8 38 7.6 38 7C38 4.2 35.8 2 33 2C30.2 2 28 4.2 28 7C28 7.6 28.2 8 28.2 8.4C18.2 10.6 10.6 19.4 10 30H8C6.8 30 6 30.8 6 32C6 33.2 6.8 34 8 34Z" fill="#C13535"/>
<path d="M49.2 44.6C49 44.2 48.4 44 48 44C47.2 44 46.6 44 45.8 44.2L43.6 47.2C41.4 50.2 37.8 52 34 52H33.4H32H29.4H28C26.8 52 26 51.2 26 50C26 48.8 26.8 48 28 48H35C35.6 47.4 36 46.4 36 45.4V45.2C36 44.4 35.4 44 34.6 44H26.6C21.8 44 18 46.2 15.8 49.6L12.2 55.2C12 55.6 12 56.2 12.2 56.6L16.2 63.2C16.4 63.6 16.6 63.8 17 63.8H17.2C17.4 63.8 17.8 63.8 18 63.6C23 60.2 29 58.4 35 58.4C39.4 58.4 43.4 56 45.4 52.2L49 45.8C49.4 45.6 49.4 45 49.2 44.6Z" fill="#C13535"/>
</svg>
