<svg width="64" height="64" viewBox="0 0 64 64" fill="none" xmlns="http://www.w3.org/2000/svg">
<path d="M38.42 49.29C39.2271 49.2878 40.0186 49.0667 40.71 48.65C41.3936 49.058 42.1739 49.2755 42.97 49.28C43.6716 49.2855 44.3651 49.1289 44.9964 48.8225C45.6276 48.5162 46.1797 48.0682 46.6096 47.5136C47.0394 46.959 47.3355 46.3127 47.4747 45.6249C47.6139 44.9372 47.5926 44.2266 47.4123 43.5484C47.232 42.8703 46.8976 42.2429 46.4352 41.7152C45.9728 41.1874 45.3948 40.7734 44.7462 40.5055C44.0977 40.2377 43.3961 40.1231 42.696 40.1707C41.9959 40.2183 41.3163 40.4268 40.71 40.78C40.1046 40.4308 39.427 40.2255 38.7296 40.1798C38.0322 40.1341 37.3337 40.2493 36.6879 40.5166C36.0422 40.7838 35.4665 41.1959 35.0053 41.721C34.5441 42.2461 34.2098 42.8702 34.0282 43.5451C33.8466 44.22 33.8226 44.9276 33.9579 45.6132C34.0933 46.2989 34.3844 46.9442 34.8089 47.4994C35.2333 48.0547 35.7797 48.5049 36.4058 48.8154C37.032 49.1258 37.7211 49.2882 38.42 49.29ZM43 42.66C43.4074 42.66 43.8057 42.7808 44.1444 43.0072C44.4832 43.2335 44.7472 43.5553 44.9031 43.9317C45.0591 44.3081 45.0999 44.7223 45.0204 45.1219C44.9409 45.5215 44.7447 45.8886 44.4566 46.1767C44.1685 46.4648 43.8014 46.661 43.4018 46.7404C43.0022 46.8199 42.588 46.7791 42.2116 46.6232C41.8352 46.4673 41.5135 46.2033 41.2871 45.8645C41.0608 45.5257 40.94 45.1275 40.94 44.72C40.94 44.1737 41.157 43.6497 41.5433 43.2634C41.9296 42.8771 42.4536 42.66 43 42.66ZM38.45 42.66C38.6086 42.6597 38.7665 42.6799 38.92 42.72C38.6047 43.3396 38.4404 44.0249 38.4404 44.72C38.4404 45.4152 38.6047 46.1005 38.92 46.72C38.767 46.7636 38.609 46.7871 38.45 46.79C37.9271 46.7536 37.4375 46.5202 37.08 46.137C36.7226 45.7537 36.5237 45.2491 36.5237 44.725C36.5237 44.2009 36.7226 43.6963 37.08 43.3131C37.4375 42.9298 37.9271 42.6964 38.45 42.66Z" fill="#C13535"/>
<path d="M56.44 9.86011H13.78C12.5103 9.87064 11.2961 10.3817 10.4011 11.2824C9.50608 12.183 9.00259 13.4004 9 14.6701V16.0801H8C6.60843 16.0828 5.2746 16.6367 4.29061 17.6207C3.30662 18.6047 2.75264 19.9385 2.75 21.3301V48.8901C2.75264 50.2817 3.30662 51.6155 4.29061 52.5995C5.2746 53.5835 6.60843 54.1375 8 54.1401H49.78C51.1664 54.1296 52.4925 53.5721 53.47 52.589C54.4476 51.6058 54.9974 50.2765 55 48.8901V47.8901H56.41C57.6849 47.8875 58.9068 47.3798 59.8083 46.4784C60.7097 45.5769 61.2174 44.355 61.22 43.0801V14.6701C61.2174 13.4004 60.7139 12.183 59.8189 11.2824C58.9239 10.3817 57.7097 9.87064 56.44 9.86011ZM5.25 21.3301C5.25 20.6008 5.53973 19.9013 6.05546 19.3856C6.57118 18.8698 7.27065 18.5801 8 18.5801H49.78C50.5085 18.5827 51.2065 18.8733 51.7216 19.3885C52.2368 19.9036 52.5274 20.6016 52.53 21.3301V22.2101H5.25V21.3301ZM52.53 48.8901C52.53 49.6195 52.2403 50.3189 51.7245 50.8347C51.2088 51.3504 50.5093 51.6401 49.78 51.6401H8C7.27065 51.6401 6.57118 51.3504 6.05546 50.8347C5.53973 50.3189 5.25 49.6195 5.25 48.8901V29.4701H52.53V48.8901Z" fill="#C13535"/>
</svg>
