<svg width="64" height="61" viewBox="0 0 64 61" fill="none" xmlns="http://www.w3.org/2000/svg">
<g clip-path="url(#clip0_126_87)">
<path fill-rule="evenodd" clip-rule="evenodd" d="M64 56.643L59.4752 60.9524L45.8976 48.0244L50.4224 43.712L64 56.643ZM25.6 42.6667C15.0144 42.6667 6.40002 34.4655 6.40002 24.381C6.40002 14.2994 15.0144 6.09524 25.6 6.09524C36.1856 6.09524 44.8 14.2994 44.8 24.381C44.8 34.4655 36.1856 42.6667 25.6 42.6667ZM25.6 0C11.4624 0 0 10.9166 0 24.381C0 37.8453 11.4624 48.7619 25.6 48.7619C39.7376 48.7619 51.2 37.8453 51.2 24.381C51.2 10.9166 39.7376 0 25.6 0Z" fill="#B91C1C"/>
</g>
<defs>
<clipPath id="clip0_126_87">
<rect width="64" height="60.9524" fill="white"/>
</clipPath>
</defs>
</svg>
