<svg width="105" height="64" viewBox="0 0 105 64" fill="none" xmlns="http://www.w3.org/2000/svg">
<path d="M0 41.3499H70.2632V55.3087C70.2659 56.4508 70.0432 57.5823 69.6078 58.638C69.1723 59.6938 68.5328 60.653 67.7258 61.4606C66.9189 62.2682 65.9604 62.9083 64.9055 63.3441C63.8507 63.7799 62.7202 64.0028 61.579 64.0001H8.91579C6.55118 64.0001 4.28341 63.0599 2.61137 61.3865C0.93934 59.7131 0 57.4435 0 55.0769L0 41.3499Z" fill="#FAFAF9"/>
<path d="M104.211 41.3499H69.4737V45.0371H104.211V41.3499Z" fill="#FAFAF9"/>
<path d="M102.895 41.0864H84.4737C83.311 41.0864 82.3684 42.0298 82.3684 43.1934C82.3684 44.3571 83.311 45.3004 84.4737 45.3004H102.895C104.057 45.3004 105 44.3571 105 43.1934C105 42.0298 104.057 41.0864 102.895 41.0864Z" fill="#FAFAF9"/>
<path d="M31.3158 0C31.3158 0 38.6842 5.26749 33.4211 13.1687C33.4211 13.1687 28.6842 23.177 35 31.0782C35 31.0782 29.2105 22.6502 36.0526 15.2757C36.0526 15.2757 43.9474 4.74074 31.3158 0Z" fill="#FAFAF9"/>
<path d="M43.421 8.95483C43.421 8.95483 37.6316 15.2758 41.8421 25.8108C41.8421 25.8108 47.6316 34.2388 40.2632 39.5063C40.2632 39.5063 52.3684 36.8725 44.4737 24.7573C44.4737 24.7573 38.6842 17.9096 43.421 8.95483Z" fill="#FAFAF9"/>
<path d="M26.0895 8.95483C26.0895 8.95483 19.7368 16.8561 25.5263 27.391C25.5263 27.391 30.1316 33.712 23.0895 39.5063C23.0895 39.5063 33.9474 37.3993 28.1579 25.8108C28.1579 25.8108 20.8632 20.0166 26.0895 8.95483Z" fill="#FAFAF9"/>
<path d="M56.3158 60.576H49.6684C47.6526 60.576 47.6526 57.9423 49.6684 57.9423H56.3158C58.9211 57.9423 61.0526 56.0302 61.0526 53.6809V45.3003C61.0526 43.936 63.4263 43.936 63.4263 45.3003V53.6809C63.3959 55.5386 62.6299 57.3082 61.2966 58.601C59.9634 59.8938 58.172 60.6042 56.3158 60.576V60.576Z" fill="#292524"/>
</svg>
