<svg width="36" height="36" viewBox="0 0 36 36" fill="none" xmlns="http://www.w3.org/2000/svg">
<g clip-path="url(#clip0_151_277)">
<path d="M1.30779 1.72978L8.62029 0.0422764C9.41483 -0.140536 10.2305 0.274308 10.5539 1.01962L13.9289 8.89462C14.2242 9.58368 14.0273 10.3923 13.4437 10.8634L9.18279 14.3509C11.714 19.7438 16.1367 24.2298 21.6422 26.8102L25.1297 22.5493C25.6078 21.9657 26.4094 21.7688 27.0984 22.0641L34.9734 25.4391C35.7258 25.7696 36.1406 26.5852 35.9578 27.3798L34.2703 34.6923C34.0945 35.4516 33.4195 36.0001 32.625 36.0001C14.618 36.0001 -2.67029e-05 21.4102 -2.67029e-05 3.37509C-2.67029e-05 2.58759 0.541382 1.90556 1.30779 1.72978Z" fill="#EF4444"/>
</g>
<defs>
<clipPath id="clip0_151_277">
<rect width="36" height="36" fill="white" transform="matrix(-1 0 0 1 36 0)"/>
</clipPath>
</defs>
</svg>
