<svg width="26" height="26" viewBox="0 0 26 26" fill="none" xmlns="http://www.w3.org/2000/svg">
<path fill-rule="evenodd" clip-rule="evenodd" d="M25.8 13C25.8 16.3948 24.4514 19.6505 22.051 22.051C19.6505 24.4514 16.3948 25.8 13 25.8C9.60524 25.8 6.34951 24.4514 3.94905 22.051C1.54858 19.6505 0.200012 16.3948 0.200012 13C0.200012 9.60523 1.54858 6.3495 3.94905 3.94903C6.34951 1.54856 9.60524 0.199997 13 0.199997C16.3948 0.199997 19.6505 1.54856 22.051 3.94903C24.4514 6.3495 25.8 9.60523 25.8 13ZM16.2 8.2C16.2 9.04869 15.8629 9.86262 15.2628 10.4627C14.6626 11.0629 13.8487 11.4 13 11.4C12.1513 11.4 11.3374 11.0629 10.7373 10.4627C10.1372 9.86262 9.80001 9.04869 9.80001 8.2C9.80001 7.3513 10.1372 6.53737 10.7373 5.93725C11.3374 5.33714 12.1513 5 13 5C13.8487 5 14.6626 5.33714 15.2628 5.93725C15.8629 6.53737 16.2 7.3513 16.2 8.2ZM13 14.6C11.4682 14.5997 9.96845 15.0392 8.67908 15.8662C7.3897 16.6933 6.36488 17.8732 5.72641 19.2656C6.62669 20.313 7.74285 21.1532 8.99832 21.7288C10.2538 22.3043 11.6189 22.6015 13 22.6C14.3811 22.6015 15.7462 22.3043 17.0017 21.7288C18.2572 21.1532 19.3733 20.313 20.2736 19.2656C19.6351 17.8732 18.6103 16.6933 17.3209 15.8662C16.0316 15.0392 14.5318 14.5997 13 14.6Z" fill="#FEF2F2"/>
</svg>
