<svg width="91" height="55" viewBox="0 0 91 55" fill="none" xmlns="http://www.w3.org/2000/svg">
<g clip-path="url(#clip0_14_50)">
<path d="M90.3158 27.535H60.2105V30.7037H90.3158V27.535Z" fill="#FEF2F2"/>
<path d="M89.1754 27.3086H73.2105C72.2028 27.3086 71.386 28.1193 71.386 29.1193C71.386 30.1194 72.2028 30.93 73.2105 30.93H89.1754C90.1831 30.93 91 30.1194 91 29.1193C91 28.1193 90.1831 27.3086 89.1754 27.3086Z" fill="#FEF2F2"/>
<path d="M27.1404 -8C27.1404 -8 33.5263 -3.47325 28.9649 3.31687C28.9649 3.31687 24.8596 11.9177 30.3333 18.7078C30.3333 18.7078 25.3158 11.465 31.2456 5.12757C31.2456 5.12757 38.0877 -3.92593 27.1404 -8Z" fill="#FEF2F2"/>
<path d="M37.6316 -0.304527C37.6316 -0.304527 32.614 5.12757 36.2632 14.1811C36.2632 14.1811 41.2807 21.4239 34.8947 25.9506C34.8947 25.9506 45.386 23.6872 38.5439 13.2757C38.5439 13.2757 33.5263 7.39095 37.6316 -0.304527Z" fill="#FEF2F2"/>
<path d="M22.6109 -0.304527C22.6109 -0.304527 17.1053 6.4856 22.1228 15.5391C22.1228 15.5391 26.114 20.9712 20.0109 25.9506C20.0109 25.9506 29.421 24.1399 24.4035 14.1811C24.4035 14.1811 18.0814 9.20164 22.6109 -0.304527Z" fill="#FEF2F2"/>
<path fill-rule="evenodd" clip-rule="evenodd" d="M60.8947 27.535H0V39.3317C0 41.3654 0.814094 43.3159 2.26319 44.754C3.71229 46.1921 5.67769 47 7.72702 47H53.3684C54.3575 47.0024 55.3372 46.8108 56.2515 46.4363C57.1657 46.0618 57.9963 45.5117 58.6957 44.8177C59.3951 44.1236 59.9494 43.2993 60.3267 42.392C60.7041 41.4847 60.8971 40.5124 60.8947 39.5309V27.535ZM43.046 44.0576H48.807C50.4157 44.0818 51.9683 43.4714 53.1238 42.3603C54.2792 41.2493 54.9431 39.7285 54.9695 38.1321V30.93C54.9695 29.7576 52.9123 29.7576 52.9123 30.93V38.1321C52.9123 40.151 51.0649 41.7942 48.807 41.7942H43.046C41.299 41.7942 41.299 44.0576 43.046 44.0576Z" fill="#FEF2F2"/>
</g>
<defs>
<clipPath id="clip0_14_50">
<rect width="91" height="55" fill="white"/>
</clipPath>
</defs>
</svg>
